<?xml version="1.0" encoding="utf-8"?>
<!-- Generator: Adobe Illustrator 24.2.3, SVG Export Plug-In . SVG Version: 6.00 Build 0)  -->
<svg version="1.1" id="Layer_1" xmlns="http://www.w3.org/2000/svg" xmlns:xlink="http://www.w3.org/1999/xlink" x="0px" y="0px"
	 viewBox="0 0 833.5 144.3" style="enable-background:new 0 0 833.5 144.3;" xml:space="preserve">
<style type="text/css">
	.st0{fill:#FFFFFF;}
	.st1{fill-rule:evenodd;clip-rule:evenodd;fill:url(#SVGID_1_);}
</style>
<path class="st0" d="M60.4,7.5l36.5,75.4c1.5,3.1,2.3,5.4,2.3,6.9c0,3.2-2.6,6.2-7.8,8.8c-3.1,1.5-5.5,2.3-7.2,2.3s-3.2-0.4-4.3-1.2
	c-1.1-0.8-1.9-1.7-2.4-2.6s-1.2-2.3-2.1-4.1l-7-14.6H30.8l-7,14.6c-0.9,1.8-1.6,3.1-2.1,3.9s-1.3,1.6-2.4,2.5
	c-1.1,0.9-2.6,1.3-4.3,1.3s-4.2-0.8-7.2-2.3C2.6,95.9,0,93,0,89.7c0-1.5,0.8-3.8,2.3-6.9L38.7,7.4c1-2.1,2.5-3.7,4.5-5
	c2-1.3,4.2-1.9,6.4-1.9C54.5,0.5,58.1,2.8,60.4,7.5z M49.5,40l-8.9,18.5h18L49.5,40z"/>
<path class="st0" d="M130.6,79.6h36.8c3,0,5.1,0.3,6.5,1s2.3,1.7,2.7,3.2c0.4,1.4,0.7,3.4,0.7,5.7c0,2.4-0.2,4.3-0.7,5.7
	c-0.5,1.4-1.2,2.4-2.3,3c-1.7,0.9-4.1,1.4-7,1.4h-48.7c-6.3,0-10-1.7-11.1-5.1c-0.5-1.4-0.8-3.7-0.8-6.9V12.4c0-2.1,0.1-3.6,0.2-4.7
	c0.1-1,0.6-2.2,1.3-3.6c1.3-2.4,4.8-3.6,10.5-3.6c6.3,0,10,1.7,11.2,5c0.5,1.5,0.7,3.9,0.7,7L130.6,79.6L130.6,79.6z"/>
<path class="st0" d="M225.9,80.8h-32.2c-5,0-8.1-1.5-9.1-4.6c-0.5-1.6-0.7-3.7-0.7-6.2s0.3-4.5,0.8-6.1c0.5-1.5,1.4-2.6,2.6-3.2
	c1.6-0.8,3.8-1.2,6.5-1.2H226c5,0,8,1.5,8.9,4.5c0.5,1.6,0.8,3.7,0.8,6.2s-0.2,4.6-0.7,6.2s-1.3,2.7-2.4,3.3
	C231,80.4,228.8,80.8,225.9,80.8z"/>
<path class="st0" d="M370.1,7.5l36.5,75.4c1.5,3.1,2.3,5.4,2.3,6.9c0,3.2-2.6,6.2-7.8,8.8c-3.1,1.5-5.5,2.3-7.2,2.3
	s-3.2-0.4-4.3-1.2c-1.1-0.8-1.9-1.7-2.4-2.6s-1.2-2.3-2.1-4.1l-7-14.6h-37.4l-7,14.6c-0.9,1.8-1.6,3.1-2.1,3.9s-1.3,1.6-2.4,2.5
	s-2.6,1.3-4.3,1.3s-4.2-0.8-7.2-2.3c-5.2-2.5-7.8-5.4-7.8-8.7c0-1.5,0.8-3.8,2.3-6.9l36.5-75.6c1-2.1,2.5-3.7,4.5-5s4.2-1.9,6.4-1.9
	C364.2,0.5,367.8,2.8,370.1,7.5z M359.2,40l-8.9,18.5h18L359.2,40z"/>
<path class="st0" d="M534.9,1c6,2.2,9.1,5,9.1,8.7c0,1.2-0.5,3.4-1.6,6.6l-26,75c-0.2,0.6-0.5,1.4-0.9,2.3c-0.5,0.9-1.6,2.1-3.6,3.6
	c-1.9,1.5-4.2,2.2-6.9,2.2s-5-0.7-6.9-2.2s-3.2-3-3.9-4.4l-15.8-46.6c-10,29.6-15.1,44.6-15.3,45.1c-0.2,0.5-0.6,1.3-1.2,2.3
	s-1.4,1.9-2.2,2.7c-2.1,2.1-4.6,3.1-7.4,3.1c-2.9,0-5.3-0.7-7.1-2c-1.8-1.4-3.1-2.7-3.7-4.1l-0.9-2l-26.1-75c-1-3-1.5-5.2-1.5-6.6
	c0-3.6,3-6.4,9.1-8.5c2.6-0.9,5-1.4,7.1-1.4s3.7,0.7,4.9,2.2c1.1,1.4,2.1,3.6,3,6.6l14.8,45.1l14.7-44.5c1.3-3.8,3.6-6.4,6.9-7.8
	c1.4-0.6,3.3-0.9,5.6-0.9s4.4,0.7,6.4,2.2s3.2,3,3.8,4.4L504.9,54l14.9-45.4c0.7-2.1,1.3-3.6,1.8-4.6c0.4-1,1.3-2,2.5-2.9
	s2.7-1.4,4.5-1.4C530.3-0.3,532.4,0.1,534.9,1z"/>
<path class="st0" d="M563.4,0.4l25,0.1c13.1,0,24.6,4.7,34.5,14.1s14.9,21,14.9,34.7s-4.8,25.5-14.5,35.3s-21.4,14.7-35.2,14.7
	h-24.7c-5.5,0-8.9-1.1-10.3-3.4c-1.1-1.9-1.6-4.8-1.6-8.7V12.3c0-2.2,0.1-3.7,0.2-4.7c0.1-1,0.6-2.2,1.3-3.5
	C554.1,1.6,557.6,0.4,563.4,0.4z M606,68.3c5.2-4.8,7.8-10.9,7.8-18.2s-2.5-13.4-7.6-18.3s-11.1-7.4-17.9-7.4h-13v51.1h13.1
	C594.9,75.5,600.7,73.1,606,68.3z"/>
<path class="st0" d="M703.7,7.5l36.5,75.4c1.5,3.1,2.3,5.4,2.3,6.9c0,3.2-2.6,6.2-7.8,8.8c-3.1,1.5-5.5,2.3-7.2,2.3
	s-3.2-0.4-4.3-1.2c-1.1-0.8-1.9-1.7-2.4-2.6s-1.2-2.3-2.1-4.1l-7-14.6h-37.4l-7,14.6c-0.9,1.8-1.6,3.1-2.1,3.9s-1.3,1.6-2.4,2.5
	c-1.1,0.9-2.6,1.3-4.3,1.3s-4.2-0.8-7.2-2.3c-5.2-2.5-7.8-5.4-7.8-8.7c0-1.5,0.8-3.8,2.3-6.9l36.1-75.4c1-2.1,2.5-3.7,4.5-5
	s4.2-1.9,6.4-1.9C697.7,0.5,701.3,2.8,703.7,7.5z M692.7,40l-8.9,18.5h18L692.7,40z"/>
<path class="st0" d="M811.1,4.1c0.7-1.4,1.9-2.3,3.6-2.8c1.7-0.5,3.9-0.8,6.5-0.8s4.7,0.2,6.2,0.7s2.7,1,3.5,1.6s1.4,1.5,1.9,2.7
	c0.4,1.5,0.7,3.9,0.7,7v75c0,2.1-0.1,3.6-0.2,4.7c-0.1,1-0.6,2.2-1.3,3.6c-1.3,2.4-4.8,3.7-10.5,3.7c-6.3,0-10-1.7-11.1-5
	c-0.5-1.5-0.8-3.9-0.8-7V60h-35.8v27.6c0,2.1-0.1,3.6-0.2,4.7c-0.1,1-0.6,2.2-1.3,3.6c-1.3,2.4-4.8,3.7-10.5,3.7
	c-6.3,0-10-1.7-11.1-5c-0.5-1.5-0.8-3.9-0.8-7v-75c0-2.1,0.1-3.6,0.2-4.7c0.1-1,0.6-2.2,1.3-3.6c1.3-2.4,4.8-3.6,10.5-3.6
	c6.3,0,10,1.7,11.2,5c0.5,1.5,0.7,3.9,0.7,7v27.6h35.8V12.4c0-2.1,0.1-3.6,0.2-4.7C810,6.7,810.4,5.5,811.1,4.1z"/>
<linearGradient id="SVGID_1_" gradientUnits="userSpaceOnUse" x1="219.1774" y1="-19.7843" x2="271.0174" y2="140.0557" gradientTransform="matrix(1 0 0 -1 0 145.7683)">
	<stop  offset="0" style="stop-color:#EE7D00"/>
	<stop  offset="0.2" style="stop-color:#EEB303"/>
	<stop  offset="0.4" style="stop-color:#009540"/>
	<stop  offset="0.6" style="stop-color:#008AD1"/>
	<stop  offset="0.8" style="stop-color:#7C6EAF"/>
	<stop  offset="1" style="stop-color:#E20613"/>
</linearGradient>
<path class="st1" d="M269.2,139.7c30.2-15.2,34.1-64,33.8-94.9c-0.2-9.8-0.3-22.9-2.9-36.8c-2.3-11.9-19.5-9.3-17.8,2.7
	c6.6,45.8,5.5,98.7-21.4,112.3l-0.1,0.1l-0.1,0.1c-8.1,4.2-18.6,2.9-29.2-0.8c-5.1-1.8-4.6-9.4,0.6-10.2c0.1,0,0.1,0,0.2,0
	c6-1,15.1-2.3,20.5-5c11.7-6,16.1-20.3,17.9-32.9c1.8-20.2,1.5-43.8-3.2-66.9c-2.3-11.5-18.9-8.8-17.2,2.8
	c0.8,5.6,1.5,11.2,2.2,17.1c1.5,14,2.5,29.9,0.5,43.8c-0.8,5.6-3.1,16.7-8.6,19.5c-4.4,2.3-31.6,5.8-54.3,8.8
	c-10,1.3-12.4,15-3.5,20.3l0,0C209.7,133.5,243,153.5,269.2,139.7"/>
</svg>
