<?xml version="1.0" encoding="utf-8"?>
<!-- Generator: Adobe Illustrator 24.2.3, SVG Export Plug-In . SVG Version: 6.00 Build 0)  -->
<svg version="1.1" id="Layer_1" xmlns="http://www.w3.org/2000/svg" xmlns:xlink="http://www.w3.org/1999/xlink" x="0px" y="0px"
	 viewBox="0 0 1073.6 224" style="enable-background:new 0 0 1073.6 224;" xml:space="preserve">
<style type="text/css">
	.st0{fill:#FFFFFF;}
	.st1{fill-rule:evenodd;clip-rule:evenodd;fill:url(#SVGID_1_);}
	.st2{fill-rule:evenodd;clip-rule:evenodd;fill:#EEB303;}
	.st3{fill-rule:evenodd;clip-rule:evenodd;fill:#009540;}
	.st4{fill-rule:evenodd;clip-rule:evenodd;fill:#008AD1;}
	.st5{fill-rule:evenodd;clip-rule:evenodd;fill:#7C6EAF;}
	.st6{fill-rule:evenodd;clip-rule:evenodd;fill:#E20613;}
	.st7{fill-rule:evenodd;clip-rule:evenodd;fill:#EE7D00;}
</style>
<path class="st0" d="M300.5,68.6L337,144c1.5,3.1,2.3,5.4,2.3,6.9c0,3.2-2.6,6.2-7.8,8.8c-3.1,1.5-5.5,2.3-7.2,2.3
	c-1.7,0-3.2-0.4-4.3-1.2c-1.1-0.8-1.9-1.7-2.4-2.6c-0.5-0.9-1.2-2.3-2.1-4.1l-7-14.6h-37.6l-7,14.6c-0.9,1.8-1.6,3.1-2.1,3.9
	s-1.3,1.6-2.4,2.5c-1.1,0.9-2.6,1.3-4.3,1.3c-1.7,0-4.2-0.8-7.2-2.3c-5.2-2.5-7.8-5.4-7.8-8.7c0-1.5,0.8-3.8,2.3-6.9l36.4-75.4
	c1-2.1,2.5-3.7,4.5-5s4.2-1.9,6.4-1.9C294.6,61.6,298.2,63.9,300.5,68.6z M289.6,101.1l-8.9,18.5h18L289.6,101.1z"/>
<path class="st0" d="M370.7,140.7h36.8c3,0,5.1,0.3,6.5,1s2.3,1.7,2.7,3.2c0.4,1.4,0.7,3.4,0.7,5.7c0,2.4-0.2,4.3-0.7,5.7
	s-1.2,2.4-2.3,3c-1.7,0.9-4.1,1.4-7,1.4h-48.7c-6.3,0-10-1.7-11.1-5.1c-0.5-1.4-0.8-3.7-0.8-6.9V73.5c0-2.1,0.1-3.6,0.2-4.7
	c0.1-1,0.6-2.2,1.3-3.6c1.3-2.4,4.8-3.6,10.5-3.6c6.3,0,10,1.7,11.2,5c0.5,1.5,0.7,3.9,0.7,7L370.7,140.7L370.7,140.7z"/>
<path class="st0" d="M466,141.9h-32.2c-5,0-8.1-1.5-9.1-4.6c-0.5-1.6-0.7-3.7-0.7-6.2s0.3-4.5,0.8-6.1c0.5-1.5,1.4-2.6,2.6-3.2
	c1.6-0.8,3.8-1.2,6.5-1.2h32.2c5,0,8,1.5,8.9,4.5c0.5,1.6,0.8,3.7,0.8,6.2s-0.2,4.6-0.7,6.2c-0.5,1.6-1.3,2.7-2.4,3.3
	C471.1,141.5,468.9,141.9,466,141.9z"/>
<path class="st0" d="M610.2,68.6l36.5,75.4c1.5,3.1,2.3,5.4,2.3,6.9c0,3.2-2.6,6.2-7.8,8.8c-3.1,1.5-5.5,2.3-7.2,2.3
	s-3.2-0.4-4.3-1.2s-1.9-1.7-2.4-2.6c-0.5-0.9-1.2-2.3-2.1-4.1l-7-14.6h-37.4l-7,14.6c-0.9,1.8-1.6,3.1-2.1,3.9s-1.3,1.6-2.4,2.5
	c-1.1,0.9-2.6,1.3-4.3,1.3c-1.7,0-4.2-0.8-7.2-2.3c-5.2-2.5-7.8-5.4-7.8-8.7c0-1.5,0.8-3.8,2.3-6.9l36.5-75.6c1-2.1,2.5-3.7,4.5-5
	s4.2-1.9,6.4-1.9C604.3,61.6,607.9,63.9,610.2,68.6z M599.3,101.1l-8.9,18.5h18L599.3,101.1z"/>
<path class="st0" d="M775,62.1c6,2.2,9.1,5,9.1,8.7c0,1.2-0.5,3.4-1.6,6.6l-26,75c-0.2,0.6-0.5,1.4-0.9,2.3
	c-0.5,0.9-1.6,2.1-3.6,3.6c-1.9,1.5-4.2,2.2-6.9,2.2s-5-0.7-6.9-2.2s-3.2-3-3.9-4.4l-15.8-46.6c-10,29.6-15.1,44.6-15.3,45.1
	s-0.6,1.3-1.2,2.3c-0.6,1-1.4,1.9-2.2,2.7c-2.1,2.1-4.6,3.1-7.4,3.1c-2.9,0-5.3-0.7-7.1-2c-1.8-1.4-3.1-2.7-3.7-4.1l-0.9-2l-26.1-75
	c-1-3-1.5-5.2-1.5-6.6c0-3.6,3-6.4,9.1-8.5c2.6-0.9,5-1.4,7.1-1.4c2.1,0,3.7,0.7,4.9,2.2c1.1,1.4,2.1,3.6,3,6.6l14.8,45.1l14.7-44.5
	c1.3-3.8,3.6-6.4,6.9-7.8c1.4-0.6,3.3-0.9,5.6-0.9c2.3,0,4.4,0.7,6.4,2.2s3.2,3,3.8,4.4l15.6,46.9l14.9-45.4
	c0.7-2.1,1.3-3.6,1.8-4.6c0.4-1,1.3-2,2.5-2.9c1.2-0.9,2.7-1.4,4.5-1.4C770.4,60.8,772.5,61.2,775,62.1z"/>
<path class="st0" d="M803.5,61.5l25,0.1c13.1,0,24.6,4.7,34.5,14.1s14.9,21,14.9,34.7s-4.8,25.5-14.5,35.3s-21.4,14.7-35.2,14.7
	h-24.7c-5.5,0-8.9-1.1-10.3-3.4c-1.1-1.9-1.6-4.8-1.6-8.7V73.4c0-2.2,0.1-3.7,0.2-4.7c0.1-1,0.6-2.2,1.3-3.5
	C794.2,62.7,797.7,61.5,803.5,61.5z M846.1,129.4c5.2-4.8,7.8-10.9,7.8-18.2c0-7.3-2.5-13.4-7.6-18.3s-11.1-7.4-17.9-7.4h-13v51.1
	h13.1C835,136.6,840.8,134.2,846.1,129.4z"/>
<path class="st0" d="M943.8,68.6l36.5,75.4c1.5,3.1,2.3,5.4,2.3,6.9c0,3.2-2.6,6.2-7.8,8.8c-3.1,1.5-5.5,2.3-7.2,2.3
	s-3.2-0.4-4.3-1.2s-1.9-1.7-2.4-2.6c-0.5-0.9-1.2-2.3-2.1-4.1l-7-14.6h-37.4l-7,14.6c-0.9,1.8-1.6,3.1-2.1,3.9s-1.3,1.6-2.4,2.5
	c-1.1,0.9-2.6,1.3-4.3,1.3s-4.2-0.8-7.2-2.3c-5.2-2.5-7.8-5.4-7.8-8.7c0-1.5,0.8-3.8,2.3-6.9L922,68.5c1-2.1,2.5-3.7,4.5-5
	s4.2-1.9,6.4-1.9C937.8,61.6,941.4,63.9,943.8,68.6z M932.8,101.1l-8.9,18.5h18L932.8,101.1z"/>
<path class="st0" d="M1051.2,65.2c0.7-1.4,1.9-2.3,3.6-2.8c1.7-0.5,3.9-0.8,6.5-0.8s4.7,0.2,6.2,0.7s2.7,1,3.5,1.6
	c0.8,0.6,1.4,1.5,1.9,2.7c0.4,1.5,0.7,3.9,0.7,7v75c0,2.1-0.1,3.6-0.2,4.7c-0.1,1-0.6,2.2-1.3,3.6c-1.3,2.4-4.8,3.7-10.5,3.7
	c-6.3,0-10-1.7-11.1-5c-0.5-1.5-0.8-3.9-0.8-7v-27.5h-35.8v27.6c0,2.1-0.1,3.6-0.2,4.7c-0.1,1-0.6,2.2-1.3,3.6
	c-1.3,2.4-4.8,3.7-10.5,3.7c-6.3,0-10-1.7-11.1-5c-0.5-1.5-0.8-3.9-0.8-7v-75c0-2.1,0.1-3.6,0.2-4.7c0.1-1,0.6-2.2,1.3-3.6
	c1.3-2.4,4.8-3.6,10.5-3.6c6.3,0,10,1.7,11.2,5c0.5,1.5,0.7,3.9,0.7,7v27.6h35.8V73.5c0-2.1,0.1-3.6,0.2-4.7
	C1050.1,67.8,1050.5,66.6,1051.2,65.2z"/>
<linearGradient id="SVGID_1_" gradientUnits="userSpaceOnUse" x1="459.282" y1="41.3303" x2="511.122" y2="201.1703" gradientTransform="matrix(1 0 0 -1 0 267.9977)">
	<stop  offset="0" style="stop-color:#EE7D00"/>
	<stop  offset="0.2" style="stop-color:#EEB303"/>
	<stop  offset="0.4" style="stop-color:#009540"/>
	<stop  offset="0.6" style="stop-color:#008AD1"/>
	<stop  offset="0.8" style="stop-color:#7C6EAF"/>
	<stop  offset="1" style="stop-color:#E20613"/>
</linearGradient>
<path class="st1" d="M509.3,200.8c30.2-15.2,34.1-64,33.8-94.9c-0.2-9.8-0.3-22.9-2.9-36.8c-2.3-11.9-19.5-9.3-17.8,2.7
	c6.6,45.8,5.5,98.7-21.4,112.3l-0.1,0.1l-0.1,0.1c-8.1,4.2-18.6,2.9-29.2-0.8c-5.1-1.8-4.6-9.4,0.6-10.2c0.1,0,0.1,0,0.2,0
	c6-1,15.1-2.3,20.5-5c11.7-6,16.1-20.3,17.9-32.9c1.8-20.2,1.5-43.8-3.2-66.9c-2.3-11.5-18.9-8.8-17.2,2.8
	c0.8,5.6,1.5,11.2,2.2,17.1c1.5,14,2.5,29.9,0.5,43.8c-0.8,5.6-3.1,16.7-8.6,19.5c-4.4,2.3-31.6,5.8-54.3,8.8
	c-10,1.3-12.4,15-3.5,20.3l0,0C449.8,194.6,483.1,214.6,509.3,200.8"/>
<path class="st0" d="M126.1,110c-0.5-0.3-1-0.5-1.5-0.7c5.7-3.6,8-7.7,8.2-15.4c0-0.3,0-0.7,0-1c0-3.3-0.5-6.2-1.3-8.6
	c-0.9-2.4-2.2-4.4-3.9-6c-3-2.7-7.2-4.3-12.6-4.9v-9.6h-10.1V73h-4.7v-9.2H90.1V73H72.3v12.8h8v49h-8v12.8h17.8v9.2h10.1v-9.2h4.7
	v9.2H115v-9.5c11.8-1.3,19-7.7,19.3-20.4c0-0.2,0-0.5,0-0.7C134.3,117.4,131.5,112.8,126.1,110z M95.4,86h13.4
	c5.7,0,8.7,2.6,8.7,8.8c0,0.3,0,0.6,0,0.9c-0.2,5.4-2.9,8.1-8.5,8.1H95.5L95.4,86L95.4,86z M118.9,126.4c-0.3,6.6-3.7,8.3-9.6,8.3
	H95.5v-18.2h13.8c6,0,9.7,2.8,9.7,9C118.9,125.8,118.9,126.1,118.9,126.4z"/>
<path class="st2" d="M2.5,57.6C-5.3,74,8.2,95.5,17.9,108.1c3.1,4,7.2,9.4,12.7,14.2c4.7,4.2,11-2.7,6.6-7.1c-17-16.7-33-39-26-53.6
	v-0.1v-0.1c2-4.5,6.8-7.4,12.4-9.4c2.7-1,4.8,2.3,2.9,4.4c0,0,0,0-0.1,0.1c-2.2,2.4-5.6,6-7,8.9c-3,6.4-0.4,13.8,2.8,19.6
	c5.5,8.9,13,18.6,22.2,26.6c4.5,4,10.6-2.7,6.3-6.9c-2.1-2-4.1-4.1-6.2-6.4c-5-5.3-10.3-11.5-13.8-17.9c-1.4-2.6-3.9-7.9-2.5-10.9
	c1.1-2.4,11.4-13,19.9-21.7c3.8-3.9,0.5-10.3-4.9-9.6l0,0C29.2,40.3,9.1,43.2,2.5,57.6"/>
<path class="st3" d="M4.3,169.5c10.3,15,35.6,14,51.5,11.9c5-0.7,11.7-1.6,18.7-3.8c5.9-1.9,3.2-10.9-2.8-9.2
	c-23,6.3-50.3,9.1-59.4-4.3V164v-0.1c-2.8-4-3-9.6-1.9-15.4c0.5-2.8,4.5-3,5.3-0.3v0.1c1,3.1,2.4,7.8,4.2,10.5
	c4,5.8,11.7,7.2,18.3,7.4c10.5-0.3,22.6-1.9,34.1-5.9c5.7-2,3-10.6-2.8-8.9c-2.8,0.8-5.7,1.5-8.6,2.2c-7.1,1.7-15.2,3.2-22.5,3
	c-2.9-0.1-8.8-0.6-10.7-3.3c-1.5-2.2-5.5-16.3-8.9-28.1c-1.5-5.2-8.7-5.6-10.7-0.6l0,0C2.7,137.7-4.9,156.6,4.3,169.5"/>
<path class="st4" d="M102.2,223.9c18.1-1.4,30-23.9,36.1-38.6c1.9-4.7,4.5-11,6-18.1c1.3-6.1-7.8-8.2-9.4-2.2
	c-6,23.1-17.2,48.1-33.4,49.3h-0.1h-0.1c-4.9,0.5-9.8-2.2-14.3-6c-2.2-1.8-0.4-5.4,2.4-4.7h0.1c3.2,0.7,8,1.9,11.2,1.6
	c7-0.6,12.1-6.6,15.6-12.2c5-9.3,9.6-20.6,12-32.5c1.2-5.9-7.6-7.9-9.1-2c-0.7,2.8-1.5,5.7-2.4,8.6c-2.1,7-4.8,14.7-8.6,20.9
	c-1.5,2.5-4.9,7.4-8.2,7.6c-2.6,0.2-16.9-3.4-28.8-6.4c-5.2-1.3-9.2,4.7-5.9,9l0,0C73.8,209.4,86.4,225.4,102.2,223.9"/>
<path class="st5" d="M198.2,166.3c7.8-16.3-5.7-37.8-15.4-50.5c-3.1-4-7.2-9.4-12.6-14.2c-4.7-4.2-11,2.7-6.6,7.1
	c17,16.7,33,39,26,53.6v0.1v0.1c-2,4.5-6.8,7.4-12.4,9.4c-2.7,1-4.8-2.3-2.9-4.4c0,0,0,0,0.1-0.1c2.2-2.4,5.6-6,7-8.9
	c3-6.4,0.4-13.8-2.8-19.6c-5.5-8.9-13-18.6-22.2-26.6c-4.5-4-10.6,2.7-6.3,6.9c2.1,2,4.1,4.1,6.2,6.4c5,5.3,10.3,11.5,13.8,17.9
	c1.4,2.6,3.9,7.9,2.5,10.9c-1.1,2.4-11.4,13-19.9,21.7c-3.8,3.9-0.5,10.3,4.9,9.6l0,0C171.5,183.7,191.6,180.8,198.2,166.3"/>
<path class="st6" d="M196.4,54.4c-10.3-15-35.6-14-51.5-11.9c-5,0.7-11.7,1.6-18.7,3.8c-5.9,1.9-3.2,10.9,2.8,9.2
	c23-6.3,50.3-9.1,59.4,4.3v0.1V60c2.8,4,3,9.6,1.9,15.4c-0.5,2.8-4.5,3-5.3,0.3v-0.1c-1-3.1-2.4-7.8-4.2-10.5
	c-4-5.8-11.7-7.2-18.3-7.4c-10.4,0.3-22.5,2-34,5.9c-5.7,2-3,10.6,2.8,8.9c2.8-0.8,5.7-1.5,8.6-2.2c7.1-1.7,15.2-3.2,22.5-3
	c2.9,0.1,8.8,0.6,10.7,3.3c1.5,2.2,5.5,16.3,8.9,28.1c1.5,5.2,8.7,5.6,10.7,0.6l0,0C198,86.2,205.5,67.4,196.4,54.4"/>
<path class="st7" d="M98.5,0.1C80.4,1.5,68.5,24,62.4,38.7c-1.9,4.7-4.5,11-6,18.1c-1.3,6.1,7.8,8.2,9.4,2.2
	c6-23.1,17.2-48.1,33.4-49.3h0.1h0.1c4.9-0.5,9.8,2.2,14.3,6c2.2,1.8,0.4,5.4-2.4,4.7h-0.1c-3.2-0.7-8-1.9-11.2-1.6
	c-7,0.6-12.1,6.6-15.6,12.2c-5,9.3-9.6,20.6-12,32.5c-1.2,5.9,7.6,7.9,9.1,2c0.7-2.8,1.5-5.7,2.4-8.6c2.1-7,4.8-14.7,8.6-20.9
	c1.5-2.5,4.9-7.4,8.2-7.6c2.6-0.2,16.9,3.4,28.8,6.4c5.2,1.3,9.2-4.7,5.9-9l0,0C126.9,14.5,114.3-1.4,98.5,0.1"/>
</svg>
