<?xml version="1.0" encoding="utf-8"?>
<!-- Generator: Adobe Illustrator 24.2.3, SVG Export Plug-In . SVG Version: 6.00 Build 0)  -->
<svg version="1.1" id="Layer_1" xmlns="http://www.w3.org/2000/svg" xmlns:xlink="http://www.w3.org/1999/xlink" x="0px" y="0px"
	 viewBox="0 0 512 512" style="enable-background:new 0 0 512 512;" xml:space="preserve">
<style type="text/css">
	.st0{fill:#24292E;}
	.st1{fill:#FFFFFF;}
</style>
<g id="_x31_42-github">
	<g>
		<path class="st0" d="M495.5,264.2c0,136.5-98.5,247.2-239.5,247.2S21.4,400.7,21.4,264.2S115,17,256,17S495.5,127.7,495.5,264.2z"
			/>
		<path class="st1" d="M171.5,401.6c0,2.1-2.4,3.7-5.4,3.7c-3.4,0.3-5.8-1.3-5.8-3.7c0-2.1,2.4-3.7,5.4-3.7
			C168.8,397.6,171.5,399.2,171.5,401.6z M139.4,397c-0.7,2.1,1.3,4.4,4.4,5c2.7,1,5.8,0,6.4-2.1c0.6-2.1-1.3-4.4-4.4-5.4
			C143.1,393.9,140.2,394.9,139.4,397L139.4,397z M184.9,395.2c-3,0.7-5,2.7-4.7,5c0.3,2.1,3,3.4,6.1,2.7c3-0.7,5-2.7,4.7-4.7
			C190.7,396.3,187.9,394.9,184.9,395.2z M252.7,0.6C109.9,0.6,0.6,109.1,0.6,251.9c0,114.2,71.9,211.9,174.5,246.3
			c13.2,2.4,17.8-5.8,17.8-12.5c0-6.4-0.3-41.6-0.3-63.2c0,0-72.1,15.4-87.2-30.7c0,0-11.7-30-28.6-37.7c0,0-23.6-16.2,1.6-15.9
			c0,0,25.6,2.1,39.7,26.6c22.6,39.7,60.3,28.3,75.1,21.5c2.4-16.5,9.1-27.9,16.5-34.7c-57.6-6.4-115.6-14.7-115.6-113.8
			c0-28.3,7.8-42.5,24.3-60.7c-2.7-6.7-11.4-34.3,2.7-69.9c21.5-6.7,71.1,27.8,71.1,27.8c20.6-5.8,42.7-8.8,64.7-8.8
			c21.9,0,44.1,3,64.7,8.8c0,0,49.5-34.6,71.1-27.8c14.1,35.7,5.4,63.2,2.7,69.9c16.5,18.2,26.6,32.4,26.6,60.7
			c0,99.4-60.7,107.3-118.2,113.8c9.5,8.1,17.5,23.6,17.5,47.8c0,34.7-0.3,77.6-0.3,86.1c0,6.7,4.7,14.8,17.8,12.5
			c103-34.2,172.8-131.9,172.8-246.1C511.4,109.1,395.5,0.6,252.7,0.6z M100.7,355.8c-1.3,1-1,3.4,0.7,5.4c1.6,1.6,4,2.4,5.4,1
			c1.3-1,1-3.4-0.7-5.4C104.4,355.2,102.1,354.4,100.7,355.8z M89.6,347.4c-0.7,1.3,0.3,3,2.4,4c1.6,1,3.7,0.7,4.4-0.7
			c0.7-1.3-0.3-3-2.4-4C92,346.1,90.3,346.4,89.6,347.4z M123,384.1c-1.6,1.3-1,4.4,1.3,6.4c2.4,2.4,5.4,2.7,6.7,1
			c1.3-1.3,0.7-4.4-1.3-6.4C127.4,382.8,124.3,382.5,123,384.1z M111.2,369c-1.6,1-1.6,3.7,0,6.1c1.6,2.4,4.4,3.4,5.8,2.4
			c1.6-1.3,1.6-4,0-6.4C115.5,368.7,112.9,367.6,111.2,369L111.2,369z"/>
	</g>
</g>
<g id="Layer_1_1_">
</g>
</svg>
