<?xml version="1.0" encoding="utf-8"?>
<!-- Generator: Adobe Illustrator 24.2.3, SVG Export Plug-In . SVG Version: 6.00 Build 0)  -->
<svg version="1.1" id="Layer_1" xmlns="http://www.w3.org/2000/svg" xmlns:xlink="http://www.w3.org/1999/xlink" x="0px" y="0px"
	 viewBox="0 0 429.9 480.1" style="enable-background:new 0 0 429.9 480.1;" xml:space="preserve">
<style type="text/css">
	.st0{fill-rule:evenodd;clip-rule:evenodd;fill:#EEB303;}
	.st1{fill-rule:evenodd;clip-rule:evenodd;fill:#009540;}
	.st2{fill-rule:evenodd;clip-rule:evenodd;fill:#008AD1;}
	.st3{fill-rule:evenodd;clip-rule:evenodd;fill:#7C6EAF;}
	.st4{fill-rule:evenodd;clip-rule:evenodd;fill:#E20613;}
	.st5{fill-rule:evenodd;clip-rule:evenodd;fill:#EE7D00;}
</style>
<path class="st0" d="M5.2,123.5c-16.8,35.1,12.2,81.1,33,108.3c6.7,8.6,15.5,20.1,27.1,30.5c10,8.9,23.6-5.7,14.1-15.1
	C43,211.3,8.7,163.7,23.7,132.3l0.1-0.2l0.1-0.2c4.4-9.5,14.7-15.8,26.6-20.1c5.8-2.1,10.4,5,6.3,9.5c0,0.1-0.1,0.1-0.1,0.2
	c-4.7,5.2-12,12.8-14.9,19.1c-6.4,13.7-0.8,29.5,5.9,41.9c11.8,19.2,27.8,39.9,47.5,57.1c9.7,8.5,22.8-5.7,13.5-14.8
	c-4.4-4.3-8.9-8.9-13.4-13.6c-10.7-11.3-22.1-24.7-29.6-38.4c-3-5.5-8.4-17-5.4-23.4c2.4-5.1,24.4-27.8,42.6-46.6
	c8.1-8.3,1-22.1-10.4-20.5l0,0C62.5,86.4,19.4,92.6,5.2,123.5"/>
<path class="st1" d="M9.2,363.4c22,32.1,76.4,30,110.3,25.6c10.8-1.5,25.2-3.4,40-8.2c12.7-4.2,6.9-23.3-6.1-19.7
	c-49.3,13.6-107.7,19.5-127.3-9.2l-0.1-0.1l-0.1-0.1c-6.1-8.6-6.4-20.6-4.2-33.1c1.1-6,9.5-6.5,11.4-0.7c0,0.1,0,0.1,0.1,0.2
	c2.1,6.7,5.1,16.8,9.1,22.5c8.6,12.4,25.2,15.5,39.3,15.8c22.5-0.7,48.5-4.1,73.1-12.6c12.2-4.2,6.4-22.6-6-19.1
	c-6,1.7-12.1,3.3-18.5,4.8c-15.2,3.6-32.5,6.8-48.1,6.4c-6.3-0.2-18.9-1.2-23-7.1c-3.3-4.6-11.8-35-19-60.2
	c-3.2-11.1-18.7-12-23-1.2l0,0C5.7,295.2-10.5,335.6,9.2,363.4"/>
<path class="st2" d="M218.8,479.9c38.8-3,64.2-51.1,77.3-82.8c4.1-10.1,9.7-23.5,12.9-38.7c2.8-13.1-16.8-17.6-20.1-4.6
	c-12.9,49.4-37,103-71.6,105.7h-0.2h-0.2c-10.5,1-21-4.8-30.7-12.9c-4.7-3.9-0.9-11.5,5.1-10.2c0.1,0,0.1,0,0.2,0
	c6.8,1.5,17.1,4,24,3.4c15-1.3,26-14,33.4-26.1c10.7-19.8,20.7-44,25.7-69.6c2.5-12.7-16.4-16.9-19.6-4.3c-1.5,6-3.2,12.1-5.1,18.4
	c-4.5,14.9-10.3,31.5-18.5,44.9c-3.3,5.4-10.5,15.8-17.6,16.4c-5.6,0.5-36.2-7.2-61.7-13.6c-11.2-2.8-19.7,10.2-12.6,19.3l0,0
	C158,448.8,184.9,483,218.8,479.9"/>
<path class="st3" d="M424.5,356.6c16.8-35.1-12.2-81.1-33-108.3c-6.7-8.6-15.5-20.1-27.1-30.5c-10-8.9-23.6,5.7-14.1,15.1
	c36.4,35.9,70.7,83.5,55.7,114.9l-0.1,0.2l-0.1,0.2c-4.4,9.5-14.7,15.8-26.6,20.1c-5.8,2.1-10.4-5-6.3-9.5c0-0.1,0.1-0.1,0.1-0.2
	c4.7-5.2,12-12.8,14.9-19.1c6.4-13.7,0.8-29.5-5.9-41.9c-11.8-19.2-27.8-39.9-47.5-57.1c-9.7-8.5-22.8,5.7-13.5,14.8
	c4.4,4.3,8.9,8.9,13.4,13.6c10.7,11.3,22.1,24.7,29.6,38.4c3,5.5,8.4,17,5.4,23.4c-2.4,5.1-24.4,27.8-42.6,46.6
	c-8.1,8.3-1,22.1,10.4,20.5l0,0C367.3,393.7,410.3,387.5,424.5,356.6"/>
<path class="st4" d="M420.6,116.8c-22-32.1-76.4-30-110.3-25.6c-10.8,1.5-25.2,3.4-40,8.2c-12.7,4.2-6.8,23.3,6.1,19.7
	c49.3-13.6,107.7-19.5,127.3,9.2l0.1,0.1l0.1,0.1c6.1,8.6,6.4,20.6,4.2,33.1c-1.1,6-9.5,6.5-11.4,0.7c0-0.1,0-0.1-0.1-0.2
	c-2.1-6.7-5.1-16.8-9.1-22.5c-8.6-12.4-25.2-15.5-39.3-15.8c-22.5,0.7-48.5,4.1-73.1,12.6c-12.2,4.2-6.4,22.6,6,19.1
	c6-1.7,12.1-3.3,18.5-4.8c15.2-3.6,32.5-6.8,48.1-6.4c6.3,0.2,18.9,1.2,23,7.1c3.3,4.6,11.8,35,19,60.2c3.2,11.1,18.7,12,23,1.2l0,0
	C424.1,184.9,440.3,144.5,420.6,116.8"/>
<path class="st5" d="M211,0.2c-38.8,3-64.2,51.1-77.3,82.8c-4.1,10.1-9.7,23.5-12.9,38.7c-2.8,13.1,16.8,17.6,20.1,4.6
	c12.9-49.4,37-103,71.6-105.7h0.2h0.2c10.5-1,21,4.8,30.7,12.9c4.7,3.9,0.9,11.5-5.1,10.2c-0.1,0-0.1,0-0.2,0
	c-6.8-1.5-17.1-4-24-3.4c-15,1.3-26,14-33.4,26.1c-10.7,19.8-20.7,44-25.7,69.6c-2.5,12.7,16.4,16.9,19.6,4.3
	c1.5-6,3.2-12.1,5.1-18.4c4.5-14.9,10.3-31.5,18.5-44.9c3.3-5.4,10.5-15.8,17.6-16.4c5.6-0.5,36.2,7.2,61.7,13.6
	c11.2,2.8,19.7-10.2,12.6-19.3l0,0C271.7,31.3,244.8-2.9,211,0.2"/>
</svg>
