<?xml version="1.0" encoding="utf-8"?>
<!-- Generator: Adobe Illustrator 24.2.3, SVG Export Plug-In . SVG Version: 6.00 Build 0)  -->
<svg version="1.1" id="Layer_1" xmlns="http://www.w3.org/2000/svg" xmlns:xlink="http://www.w3.org/1999/xlink" x="0px" y="0px"
	 viewBox="0 0 429.9 480.1" style="enable-background:new 0 0 429.9 480.1;" xml:space="preserve">
<style type="text/css">
	.st0{fill:#FFFFFF;}
</style>
<path class="st0" d="M270.1,235.8c-1-0.5-2.1-1.1-3.2-1.5c12.2-7.7,17.2-16.4,17.6-33.1c0-0.7,0-1.4,0-2.2c0-7.1-1-13.3-2.9-18.4
	c-1.9-5.2-4.7-9.4-8.4-12.8c-6.4-5.9-15.5-9.2-27-10.4v-20.3h-21.7v19.8h-10v-19.8h-21.7v19.8h-38.2v27.4h17.2v105h-17.2v27.4h38.2
	v19.8h21.8v-19.8h10v19.8h21.7v-20.3c25.3-2.8,40.8-16.5,41.3-43.8c0-0.5,0-1,0-1.5C287.6,251.7,281.7,241.8,270.1,235.8z
	 M204.4,184.4h28.7c12.2,0,18.6,5.6,18.6,18.8c0,0.6,0,1.2-0.1,1.8c-0.5,11.5-6.2,17.5-18.3,17.5h-28.9L204.4,184.4L204.4,184.4z
	 M254.6,271.1c-0.6,14.1-7.8,17.7-20.6,17.7h-29.6v-39H234c12.9,0,20.7,6.1,20.7,19.3C254.7,269.7,254.7,270.4,254.6,271.1z"/>
</svg>
