<?xml version="1.0" encoding="utf-8"?>
<!-- Generator: Adobe Illustrator 24.2.3, SVG Export Plug-In . SVG Version: 6.00 Build 0)  -->
<svg version="1.1" id="Social_Icons" xmlns="http://www.w3.org/2000/svg" xmlns:xlink="http://www.w3.org/1999/xlink" x="0px"
	 y="0px" viewBox="0 0 128 128" style="enable-background:new 0 0 128 128;" xml:space="preserve">
<style type="text/css">
	.st0{fill-rule:evenodd;clip-rule:evenodd;fill:#FFFFFF;}
	.st1{fill-rule:evenodd;clip-rule:evenodd;fill:#67C15E;}
</style>
<circle class="st0" cx="63.7" cy="63.6" r="47.9"/>
<path id="WhatsApp_1_" class="st1" d="M46.1,32.5c-1.2-3-2.2-3.1-4.1-3.2c-0.6,0-1.4-0.1-2.1-0.1c-2.4,0-5,0.7-6.5,2.3
	c-1.9,1.9-6.5,6.4-6.5,15.6c0,9.2,6.7,18.1,7.6,19.3c0.9,1.2,13.1,20.4,31.9,28.1c14.7,6.1,19.1,5.5,22.4,4.8c4.9-1.1,11-4.7,12.6-9
	c1.5-4.4,1.5-8.1,1.1-8.9c-0.5-0.8-1.7-1.2-3.6-2.2c-1.9-0.9-11-5.5-12.8-6.1c-1.7-0.6-3.3-0.4-4.6,1.4c-1.8,2.5-3.6,5.1-5,6.6
	c-1.1,1.2-3,1.4-4.5,0.7c-2.1-0.9-7.9-2.9-15-9.3c-5.5-4.9-9.3-11.1-10.4-12.9c-1.1-1.9-0.1-3,0.8-4c0.9-1.2,1.8-2,2.8-3.1
	c0.9-1.1,1.5-1.7,2.1-2.9c0.6-1.2,0.2-2.5-0.3-3.5C51.4,45.4,47.7,36.2,46.1,32.5z M64,0C28.7,0,0,28.7,0,64c0,14,4.5,27,12.2,37.5
	l-8,23.8l24.6-7.9C38.9,124.1,51,128,64,128c35.3,0,64-28.7,64-64C128,28.7,99.3,0,64,0L64,0L64,0L64,0z"/>
</svg>
